<svg width="24" height="24" viewBox="0 0 24 24" fill="none" xmlns="http://www.w3.org/2000/svg">
<path d="M3.24005 7.28991L11.7601 11.9199C11.9101 11.9999 12.0901 11.9999 12.2401 11.9199L20.7601 7.28991C20.919 7.21142 21.0153 7.04521 21.0044 6.86828C20.9935 6.69135 20.8774 6.53826 20.7101 6.47991L12.1901 2.99991C12.0683 2.9499 11.9318 2.9499 11.8101 2.99991L3.29005 6.47991C3.12266 6.53826 3.00663 6.69135 2.99571 6.86828C2.98479 7.04521 3.08111 7.21142 3.24005 7.28991Z" fill="#637381"/>
<path d="M20.7101 10.6599L18.8801 9.87988L12.2401 13.4899C12.0901 13.5699 11.9101 13.5699 11.7601 13.4899L5.1201 9.87988L3.2901 10.6599C3.13214 10.7428 3.0332 10.9065 3.0332 11.0849C3.0332 11.2633 3.13214 11.427 3.2901 11.5099L11.8101 16.4099C11.9574 16.5 12.1428 16.5 12.2901 16.4099L20.8101 11.5099C20.9605 11.4098 21.042 11.2337 21.0209 11.0542C20.9998 10.8747 20.8797 10.7224 20.7101 10.6599Z" fill="#637381"/>
<path d="M20.7101 15.0999L19.1501 14.4199L12.2401 18.1799C12.0901 18.2599 11.9101 18.2599 11.7601 18.1799L4.85008 14.4199L3.29008 15.0999C3.12762 15.1842 3.02563 15.3519 3.02563 15.5349C3.02563 15.7179 3.12762 15.8857 3.29008 15.9699L11.8101 20.9699C11.9601 21.0499 12.1401 21.0499 12.2901 20.9699L20.8101 15.9699C20.9651 15.8684 21.0495 15.6881 21.0284 15.5041C21.0072 15.32 20.8841 15.1636 20.7101 15.0999Z" fill="#637381"/>
</svg>
