<svg width="18" height="18" viewBox="0 0 18 18" fill="none" xmlns="http://www.w3.org/2000/svg">
<path fill-rule="evenodd" clip-rule="evenodd" d="M14.45 1.66001L17.79 8.34001C17.9293 8.6195 18.0012 8.92772 18 9.24001V15C18 16.6569 16.6569 18 15 18H3.00002C1.34316 18 1.5357e-05 16.6569 1.5357e-05 15V9.24001C-0.00120831 8.92772 0.0707116 8.6195 0.210015 8.34001L3.55002 1.66001C4.05881 0.640848 5.10091 -0.0022328 6.24002 5.82581e-06H11.76C12.8991 -0.0022328 13.9412 0.640848 14.45 1.66001ZM6.24002 2.00001C5.85986 1.99736 5.51108 2.2105 5.34002 2.55001L2.62002 8.00001H5.00002C5.5523 8.00001 6.00002 8.44772 6.00002 9.00001V11C6.00002 11.5523 6.44773 12 7.00002 12H11C11.5523 12 12 11.5523 12 11V9.00001C12 8.44772 12.4477 8.00001 13 8.00001H15.38L12.66 2.55001C12.4889 2.2105 12.1402 1.99736 11.76 2.00001H6.24002Z" fill="#637381"/>
</svg>
