<svg
  width="25"
  height="24"
  viewBox="0 0 25 24"
  fill="#fff"
  xmlns="http://www.w3.org/2000/svg"
>
<path
    d="M24.75 4.15343V19.8489C24.5636 20.2846 24.2316 20.4314 23.7635 20.4296C20.6147 20.417 17.4653 20.423 14.3159 20.423H14.0342C14.0342 21.2021 14.039 21.9417 14.0342 22.6831C14.0289 23.226 13.6063 23.5611 13.0705 23.4622C12.6091 23.3755 12.1474 23.2886 11.6855 23.2015C8.09723 22.5294 4.51133 21.8574 0.927825 21.1854C0.498716 21.1045 0.25 20.8036 0.25 20.3595C0.25 14.7875 0.25 9.21385 0.25 3.63862C0.25 3.19513 0.497517 2.89607 0.927825 2.81516C4.98119 2.05603 9.03496 1.2969 13.0891 0.537767C13.6075 0.441278 14.0223 0.782887 14.0283 1.31688C14.0354 1.97612 14.0283 2.64076 14.0283 3.30241V3.57869H14.3357C17.4689 3.57869 20.6027 3.58468 23.736 3.5721C24.2118 3.5709 24.5582 3.70635 24.75 4.15343ZM14.0402 15.8293C14.799 15.8293 15.5319 15.8293 16.2649 15.8293C16.7533 15.8293 17.0949 16.1547 17.092 16.5988C17.089 17.0429 16.7473 17.3563 16.2529 17.3587C15.5991 17.3617 14.9452 17.3587 14.2914 17.3587H14.0414V18.875H23.2038V5.12253H14.0468V6.64179C14.7942 6.64179 15.5265 6.64179 16.2589 6.64179C16.7497 6.64179 17.092 6.96182 17.092 7.40532C17.092 7.84881 16.7503 8.16825 16.2613 8.17064C15.6074 8.17424 14.9536 8.17064 14.2991 8.17064H14.0498V9.70189C14.7942 9.70189 15.5194 9.70189 16.2445 9.70189C16.7515 9.70189 17.0973 10.0231 17.092 10.4762C17.0872 10.9191 16.7443 11.2295 16.2529 11.2319C15.5991 11.2319 14.9452 11.2319 14.2914 11.2319H14.0468V12.7632H14.2949C14.9404 12.7632 15.5865 12.7632 16.2325 12.7632C16.7455 12.7632 17.0914 13.0718 17.0938 13.5237C17.0961 13.9756 16.7509 14.2914 16.2433 14.2932C15.6608 14.2932 15.0789 14.2932 14.4969 14.2932H14.0402V15.8293ZM7.3369 10.6093C7.26678 10.5355 7.21164 10.481 7.1607 10.4223C6.60274 9.787 6.04957 9.15232 5.49101 8.51585C5.13861 8.11611 4.68074 8.06157 4.33613 8.37021C3.99152 8.67886 3.99572 9.12176 4.33613 9.5179C4.42423 9.62039 4.51592 9.72227 4.60343 9.82415L6.36961 11.8456C6.31627 11.9182 6.27132 11.9823 6.22277 12.0446C5.58351 12.8689 4.94284 13.6929 4.30077 14.5168C4.13656 14.7271 4.03467 14.9531 4.1 15.2246C4.12826 15.3664 4.19785 15.4967 4.30002 15.5991C4.40218 15.7015 4.53235 15.7714 4.67414 15.7999C5.01935 15.885 5.28185 15.749 5.48921 15.4835C6.07295 14.7363 6.65508 13.9878 7.23562 13.2379C7.28716 13.1719 7.3417 13.1078 7.40223 13.0335C7.47894 13.1174 7.53887 13.1809 7.5964 13.2462C8.24726 13.9902 8.89832 14.7337 9.54957 15.4769C9.90497 15.8808 10.3551 15.942 10.7033 15.6405C11.0515 15.339 11.0574 14.8818 10.7033 14.4766C10.2801 13.9888 9.85343 13.5045 9.42851 13.0185L8.36173 11.7971C8.41207 11.7282 8.44863 11.6772 8.48759 11.6263C9.24112 10.6562 9.99506 9.68771 10.7494 8.72081C10.9196 8.50266 11.0191 8.26893 10.9436 7.98965C10.9119 7.84819 10.8389 7.71932 10.734 7.61935C10.629 7.51938 10.4967 7.45282 10.3539 7.42809C10.023 7.35917 9.76353 7.49342 9.56096 7.75352L7.66832 10.1879C7.56164 10.3246 7.45437 10.46 7.3369 10.6093Z"
    fill="white"
  />
<path
    d="M20.1794 6.64205C20.4263 6.64205 20.6738 6.63546 20.9202 6.64205C21.3583 6.65644 21.6825 6.98186 21.6861 7.39839C21.6897 7.8251 21.3589 8.16132 20.9106 8.16851C20.4087 8.1761 19.9069 8.1761 19.4051 8.16851C18.9562 8.16132 18.626 7.8275 18.626 7.40079C18.626 6.97407 18.9592 6.65224 19.4135 6.64145C19.6682 6.63486 19.9247 6.64205 20.1794 6.64205Z"
    fill="white"
  />
<path
    d="M20.1474 11.2347C19.8927 11.2347 19.6374 11.2419 19.3827 11.2347C19.1812 11.2328 18.9886 11.1512 18.847 11.0078C18.7054 10.8644 18.6263 10.6709 18.627 10.4693C18.6255 10.2706 18.7026 10.0793 18.8414 9.93715C18.9803 9.79495 19.1696 9.71332 19.3683 9.71001C19.8933 9.69562 20.4189 9.69562 20.9451 9.71001C21.1471 9.7108 21.3406 9.79182 21.4829 9.93523C21.6252 10.0786 21.7047 10.2727 21.7039 10.4747C21.7031 10.6768 21.622 10.8702 21.4786 11.0125C21.3352 11.1548 21.1412 11.2343 20.9391 11.2335C20.6736 11.2425 20.4105 11.2347 20.1474 11.2347Z"
    fill="white"
  />
<path
    d="M20.1544 14.2973C19.8997 14.2973 19.6444 14.3039 19.3897 14.2973C19.1875 14.2982 18.9932 14.2187 18.8496 14.0764C18.7061 13.934 18.6249 13.7405 18.624 13.5383C18.6232 13.3361 18.7026 13.1419 18.845 12.9983C18.9873 12.8547 19.1809 12.7735 19.3831 12.7727C19.9001 12.7607 20.4177 12.7607 20.9359 12.7727C21.0359 12.7735 21.1348 12.7942 21.2267 12.8335C21.3187 12.8728 21.402 12.9299 21.4718 13.0016C21.5415 13.0732 21.5964 13.158 21.6332 13.251C21.67 13.344 21.6881 13.4434 21.6862 13.5434C21.6814 13.9599 21.3554 14.2847 20.9191 14.2973C20.6644 14.3069 20.4091 14.2979 20.1544 14.2973Z"
    fill="white"
  />
<path
    d="M20.1609 17.3622C19.9062 17.3622 19.6509 17.3676 19.3962 17.3622C18.9587 17.3496 18.6327 17.0272 18.6261 16.6101C18.6195 16.1834 18.9479 15.8442 19.3974 15.8358C19.9074 15.8262 20.4162 15.825 20.9268 15.8358C21.1254 15.8413 21.314 15.9241 21.4524 16.0665C21.5909 16.209 21.6684 16.3998 21.6684 16.5984C21.6684 16.797 21.5909 16.9878 21.4524 17.1303C21.314 17.2727 21.1254 17.3555 20.9268 17.361C20.6709 17.3658 20.4156 17.3586 20.1609 17.3622Z"
    fill="white"
  />
</svg>
